# xmcd CD database file
#
# Track frame offsets:
#	150
#	17923
#	35223
#	56468
#	68245
#	88154
#	107750
#	129908
#	148904
#	160594
#	175955
#	187864
#	200332
#	212313
#	222601
#	234798
#	246145
#	263311
#	274125
#	288672
#	301003
#	316641
#
# Disc length: 4418 seconds
#
# Revision: 0
# Processed by: cddbd v1.5.2PL0 Copyright (c) Steve Scherf et al.
# Submitted via: CDex 1.70beta2
#
DISCID=34114016
DTITLE=Ray Bryant Trio - Complete Recordings (with Jimmy Rowser and Ben Riley)
DYEAR=1900
DGENRE=Jazz
TTITLE0=What is This Thing Called Love
TTITLE1=C-Jam Blues
TTITLE2=Sister Suzie
TTITLE3=This is All I Ask
TTITLE4=Love for Sale
TTITLE5=Blowin' in the Wind
TTITLE6=Satin Doll
TTITLE7=Days of Wine and Roses
TTITLE8=Blue Azure
TTITLE9=All the Young Ladies
TTITLE10=Cold Turkey
TTITLE11=Shake a Lady
TTITLE12=Favela
TTITLE13=Chicago Serenade
TTITLE14=Congolese Children
TTITLE15=Blues March
TTITLE16=O Morro
TTITLE17=Mandecee
TTITLE18=Sometime Ago
TTITLE19=Slip-Up
TTITLE20=Hello Dolly
TTITLE21=I Wish You Love
EXTD=
EXTT0=
EXTT1=
EXTT2=
EXTT3=
EXTT4=
EXTT5=
EXTT6=
EXTT7=
EXTT8=
EXTT9=
EXTT10=
EXTT11=
EXTT12=
EXTT13=
EXTT14=
EXTT15=
EXTT16=
EXTT17=
EXTT18=
EXTT19=
EXTT20=
EXTT21=
PLAYORDER=
